<svg version="1.2" xmlns="http://www.w3.org/2000/svg" viewBox="0 0 1500 1449" width="518" height="500"><style>.a{fill:#211407}.b{fill:#ef7d37}</style><path fill-rule="evenodd" class="a" d="m750 1449c-101.2 0-199.5-19.1-291.9-56.7-89.4-36.3-169.6-88.3-238.4-154.5-68.9-66.2-123-143.3-160.7-229.1-39.2-89-59-183.4-59-280.7 0-97.3 19.8-191.7 59-280.7 37.7-85.8 91.8-162.9 160.7-229.1 68.8-66.2 149-118.2 238.4-154.5 92.4-37.6 190.7-56.7 291.9-56.7 101.2 0 199.5 19.1 291.9 56.7 89.4 36.3 169.6 88.3 238.4 154.5 68.9 66.2 123 143.3 160.7 229.1 39.2 89 59 183.4 59 280.7 0 97.3-19.8 191.7-59 280.7-37.7 85.8-91.8 162.9-160.7 229.1-68.8 66.2-149 118.2-238.4 154.5-92.4 37.6-190.7 56.7-291.9 56.7zm0-1367.4c-90.8 0-178.8 17.1-261.7 50.8-80.1 32.5-152 79.1-213.8 138.5-61.7 59.4-110.2 128.5-144.1 205.5-35 79.7-52.8 164.3-52.8 251.6 0 87.3 17.8 171.9 52.8 251.6 33.9 77 82.4 146.1 144.1 205.5 61.8 59.4 133.7 106 213.8 138.5 82.9 33.7 170.9 50.8 261.7 50.8 90.8 0 178.8-17.1 261.7-50.8 80.1-32.5 152-79.1 213.8-138.5 61.7-59.4 110.2-128.5 144.1-205.5 35-79.7 52.8-164.3 52.8-251.6 0-87.3-17.8-171.9-52.8-251.6-33.9-77-82.4-146.1-144.1-205.5-61.8-59.4-133.7-106-213.8-138.5-82.9-33.7-170.9-50.8-261.7-50.8z"/><path fill-rule="evenodd" class="b" d="m750 1177.7c-90.2 0-163.5-70.5-163.5-157.2 0-74.6-63.2-135.3-140.8-135.3-90.2 0-163.5-70.5-163.5-157.2 0-86.7 73.3-157.2 163.5-157.2 77.6 0 140.8-60.7 140.8-135.3 0-86.7 73.3-157.2 163.5-157.2 90.2 0 163.5 70.5 163.5 157.2 0 74.6 63.2 135.3 140.8 135.3 90.2 0 163.5 70.5 163.5 157.2 0 86.7-73.3 157.2-163.5 157.2-77.6 0-140.8 60.7-140.8 135.3 0 86.7-73.3 157.2-163.5 157.2zm0-877.5c-77.6 0-140.7 60.7-140.7 135.3 0 86.7-73.4 157.2-163.6 157.2-77.6 0-140.7 60.7-140.7 135.3 0 74.6 63.1 135.3 140.7 135.3 90.2 0 163.6 70.5 163.6 157.2 0 74.6 63.1 135.3 140.7 135.3 77.6 0 140.7-60.7 140.7-135.3 0-86.7 73.4-157.2 163.6-157.2 77.6 0 140.7-60.7 140.7-135.3 0-74.6-63.1-135.3-140.7-135.3-90.2 0-163.6-70.5-163.6-157.2 0-74.6-63.1-135.3-140.7-135.3z"/><path fill-rule="evenodd" class="b" d="m965.2 1103c-46.8 0-90.7-17.5-123.8-49.2-50.4-48.5-132.4-48.5-182.8 0-33.1 31.7-77 49.2-123.8 49.2-46.7 0-90.6-17.5-123.7-49.2-33-31.8-51.2-74-51.2-119 0-44.9 18.2-87.1 51.2-118.9 24.5-23.5 37.9-54.7 37.9-87.9 0-33.2-13.4-64.4-37.9-87.9-68.2-65.6-68.2-172.3 0-237.8 33.1-31.8 77-49.3 123.7-49.3 46.8 0 90.7 17.5 123.8 49.3 50.4 48.4 132.4 48.4 182.8 0 68.3-65.6 179.3-65.6 247.5 0 33 31.7 51.2 74 51.2 118.9 0 44.9-18.2 87.1-51.2 118.9-24.5 23.5-37.9 54.7-37.9 87.9 0 33.2 13.4 64.4 37.9 87.9 68.2 65.6 68.2 172.3 0 237.9-33.1 31.7-77 49.2-123.7 49.2zm-215.2-129.4c44.8 0 89.6 16.4 123.7 49.2 24.4 23.4 56.9 36.4 91.5 36.4 34.5 0 67-13 91.4-36.4 50.4-48.5 50.4-127.4 0-175.9-33.1-31.7-51.3-74-51.3-118.9 0-44.9 18.2-87.1 51.3-118.9 24.4-23.5 37.9-54.7 37.9-87.9 0-33.2-13.5-64.4-37.9-87.9-50.4-48.5-132.5-48.5-182.9 0-68.2 65.6-179.2 65.6-247.4 0-24.4-23.5-56.9-36.4-91.5-36.4-34.5 0-67 12.9-91.4 36.4-50.4 48.5-50.4 127.3 0 175.8 33.1 31.8 51.3 74 51.3 118.9 0 44.9-18.2 87.2-51.3 118.9-24.4 23.5-37.9 54.7-37.9 87.9 0 33.3 13.5 64.5 37.9 88 24.4 23.4 56.9 36.4 91.4 36.4 34.6 0 67.1-13 91.5-36.4 34.1-32.8 78.9-49.2 123.7-49.2z"/></svg>