<svg xmlns="http://www.w3.org/2000/svg" width="512" height="512" viewBox="0 0 512 512" fill="none">
<path d="M212.966 116.199C229.51 99.0603 252.56 88.2344 277.977 88.2344C311.86 88.2344 341.216 107.145 356.97 135.117C370.565 129.011 385.73 125.661 401.685 125.661C462.758 125.661 512 175.499 512 236.966C512 298.432 462.557 348.256 401.685 348.256C394.21 348.256 386.914 347.467 380.02 346.089C366.231 370.711 339.831 387.462 309.486 387.462C296.888 387.462 284.864 384.506 274.225 379.384C260.243 412.284 227.537 435.521 189.515 435.521C149.922 435.521 116.039 410.505 103.033 375.231C97.2635 376.415 91.3888 377.008 85.4995 377.003C38.2228 377.003 0 338.392 0 290.52C0 258.68 17.1387 230.632 42.7497 215.66C37.4337 203.643 34.4781 190.256 34.4781 176.067C34.2981 121.522 79.0136 77.0001 133.766 77.0001C149.097 76.9744 164.225 80.5002 177.965 87.3011C191.705 94.102 203.683 103.993 212.96 116.199" fill="#00A1E0"/>
<path d="M74.0782 262.964L76.2447 257.254C76.6393 256.271 77.2277 256.665 77.6291 256.859L79.4011 258.036C85.5063 261.981 91.2238 261.981 92.9958 261.981C97.5296 261.981 100.471 259.614 100.471 256.271V256.077C100.471 252.533 96.1383 251.162 91.0161 249.57L89.8394 249.176C82.9452 247.203 75.4557 244.261 75.4557 235.581V235.387C75.4557 227.115 82.1561 221.197 91.8052 221.197H92.7881C98.4987 221.197 103.822 222.775 107.76 225.337C108.155 225.53 108.549 225.925 108.349 226.513L106.182 232.224C105.787 233.207 104.798 232.618 104.798 232.618C101.254 230.646 95.9376 229.268 91.4037 229.268C87.2644 229.268 84.7033 231.435 84.7033 234.39V234.584C84.7033 237.934 89.2372 239.499 94.3594 241.091L95.3423 241.285C102.237 243.451 109.532 246.407 109.532 254.879V255.073C109.532 264.141 103.026 269.651 92.5874 269.651C87.4652 269.651 82.5506 268.862 77.2207 266.107C76.2378 265.518 75.248 265.124 74.2651 264.335C74.0713 263.94 73.6767 263.746 74.0713 262.95L74.0782 262.964ZM227.745 262.964L229.911 257.254C230.306 256.271 231.088 256.665 231.296 256.859L233.068 258.036C239.173 261.981 244.89 261.981 246.662 261.981C251.196 261.981 254.138 259.614 254.138 256.271V256.077C254.138 252.533 249.805 251.162 244.683 249.57L243.506 249.176C236.612 247.203 229.122 244.261 229.122 235.581V235.387C229.122 227.115 235.823 221.197 245.472 221.197H246.455C252.165 221.197 257.488 222.775 261.427 225.337C261.821 225.53 262.216 225.925 262.015 226.513L259.848 232.224C259.454 233.207 258.464 232.618 258.464 232.618C254.92 230.646 249.604 229.268 245.07 229.268C240.931 229.268 238.37 231.435 238.37 234.39V234.584C238.37 237.934 242.904 239.499 248.026 241.091L249.009 241.285C255.903 243.451 263.199 246.407 263.199 254.879V255.073C263.199 264.141 256.692 269.651 246.254 269.651C241.132 269.651 236.217 268.862 230.887 266.107C229.904 265.518 228.914 265.124 227.932 264.335C227.932 263.94 227.537 263.746 227.738 262.95L227.745 262.964ZM341.61 235.969C342.399 238.924 342.994 242.074 342.994 245.424C342.994 248.774 342.6 251.931 341.61 254.879C340.821 257.835 339.443 260.396 337.665 262.493C335.842 264.68 333.553 266.431 330.964 267.616C328.209 268.792 325.053 269.388 321.509 269.388C317.965 269.388 314.808 268.799 312.054 267.616C309.299 266.432 307.139 264.66 305.353 262.493C303.567 260.327 302.204 257.766 301.408 254.879C300.612 251.993 300.023 248.774 300.023 245.424C300.023 242.074 300.418 238.917 301.408 235.969C302.197 233.013 303.574 230.452 305.353 228.355C307.175 226.168 309.465 224.417 312.054 223.232C315.037 221.936 318.255 221.264 321.509 221.26C325.053 221.26 328.209 221.848 330.964 223.232C333.719 224.409 335.879 226.188 337.665 228.355C339.45 230.521 340.814 233.082 341.61 235.969ZM332.75 245.23C332.75 240.108 331.767 236.162 329.995 233.408C328.223 230.653 325.267 229.268 321.523 229.268C317.577 229.268 314.822 230.653 313.05 233.408C311.278 236.162 310.295 240.108 310.295 245.23C310.295 250.352 311.278 254.298 313.05 257.247C314.822 260.002 317.584 261.386 321.523 261.386C325.461 261.386 328.223 260.002 329.995 257.247C331.968 254.492 332.75 250.352 332.75 245.23ZM413.716 260.002L415.882 265.913C416.076 266.702 415.488 266.896 415.488 266.896C412.137 268.28 407.611 269.062 403.077 269.062C395.463 269.062 389.683 266.896 385.744 262.556C381.806 258.216 379.833 252.311 379.833 245.022C379.833 241.672 380.227 238.516 381.217 235.567C382.207 232.618 383.585 230.05 385.55 227.953C387.519 225.755 389.939 224.007 392.645 222.831C395.762 221.515 399.112 220.844 402.495 220.858C404.667 220.867 406.838 220.998 408.995 221.253C410.968 221.647 413.723 222.236 414.906 222.831C415.1 222.831 415.695 223.225 415.495 223.814L413.328 229.725C412.933 230.708 412.345 230.313 412.345 230.313C409.389 229.331 406.635 228.929 403.084 228.929C398.75 228.929 395.469 230.313 393.427 233.262C391.261 236.017 390.077 239.769 390.077 244.891C390.077 250.408 391.462 254.346 393.815 256.907C396.169 259.469 399.526 260.645 403.852 260.645C405.624 260.645 407.202 260.451 408.58 260.251C409.957 260.05 411.334 259.662 412.719 259.074C412.525 259.469 413.307 259.268 413.702 260.057L413.716 260.002ZM458.431 234.197C460.404 240.897 459.414 246.608 459.22 247.002C459.22 247.791 458.431 247.791 458.431 247.791H428.688C428.882 252.325 429.864 255.405 432.232 257.641C434.398 259.808 437.749 261.185 442.476 261.185C449.571 261.185 452.513 259.801 454.693 259.019C454.693 259.019 455.482 258.825 455.87 259.607L457.843 265.124C458.237 266.107 457.843 266.3 457.649 266.508C455.877 267.491 451.35 269.464 442.677 269.464C438.538 269.464 434.8 268.875 431.844 267.692C428.888 266.508 426.327 264.937 424.368 262.777C422.41 260.618 421.018 258.05 420.035 255.302C419.052 252.346 418.651 249.196 418.651 245.846C418.651 242.496 419.045 239.34 420.035 236.391C420.824 233.435 422.202 230.874 423.981 228.777C425.76 226.679 428.12 224.831 430.875 223.655C433.63 222.27 436.98 221.682 440.725 221.682C443.874 221.682 446.83 222.27 449.197 223.454C450.969 224.243 452.935 225.62 454.908 227.787C455.891 228.576 457.663 231.525 458.452 234.294L458.431 234.197ZM428.875 240.496H449.952C449.758 237.741 449.163 235.373 447.979 233.401C446.207 230.646 443.646 229.067 439.707 229.067C435.769 229.067 433.007 230.646 431.235 233.401C430.058 235.173 429.463 237.54 428.868 240.496H428.875ZM220.65 234.197C222.622 240.897 221.633 246.608 221.633 247.002C221.633 247.791 220.843 247.791 220.843 247.791H191.1C191.294 252.325 192.277 255.405 194.644 257.641C196.811 259.808 200.161 261.185 204.888 261.185C211.983 261.185 214.925 259.801 217.106 259.019C217.106 259.019 217.895 258.825 218.282 259.607L220.255 265.124C220.65 266.107 220.255 266.3 220.061 266.508C218.289 267.491 213.762 269.464 205.089 269.464C200.95 269.464 197.212 268.875 194.256 267.692C191.301 266.508 188.74 264.937 186.781 262.777C184.822 260.618 183.431 258.05 182.448 255.302C181.465 252.346 181.063 249.196 181.063 245.846C181.063 242.496 181.458 239.34 182.448 236.391C183.237 233.435 184.614 230.874 186.393 228.777C188.172 226.679 190.532 224.831 193.287 223.655C196.042 222.27 199.392 221.682 203.137 221.682C206.287 221.682 209.242 222.27 211.61 223.454C213.382 224.243 215.347 225.62 217.32 227.787C218.109 228.576 220.075 231.525 220.67 234.294L220.65 234.197ZM191.093 240.496H212.371C212.177 237.741 211.582 235.373 210.398 233.401C208.626 230.646 206.065 229.067 202.127 229.067C198.188 229.067 195.426 230.646 193.654 233.401C192.27 235.173 191.681 237.54 191.093 240.496V240.496ZM138.888 238.917L143.803 239.506V238.329C143.803 234.384 143.014 232.418 141.435 231.234C139.857 230.05 137.296 229.261 134.147 229.261C134.147 229.261 126.858 229.261 121.147 232.217C120.953 232.411 120.753 232.411 120.753 232.411C120.753 232.411 119.964 232.605 119.77 232.016L117.603 226.306C117.209 225.517 117.797 225.129 117.797 225.129C120.552 222.962 126.865 221.779 126.865 221.779C129.031 221.384 132.575 220.99 134.742 220.99C140.653 220.99 145.18 222.374 148.336 225.129C151.493 227.884 153.064 232.224 153.064 238.329V265.511C153.064 265.511 153.064 266.3 152.476 266.494C152.476 266.494 151.299 266.889 150.309 267.083L142.834 268.467C139.878 269.055 136.922 269.256 133.766 269.256C130.81 269.256 128.249 269.062 125.889 268.467C123.528 267.872 121.556 267.083 119.784 265.906C118.205 264.729 116.828 263.151 115.838 261.178C114.855 259.406 114.454 257.039 114.454 254.478C114.454 251.917 115.042 249.563 116.032 247.584C117.022 245.604 118.593 244.04 120.365 242.669C122.137 241.298 124.31 240.502 126.47 239.713C128.837 239.125 131.198 238.73 133.759 238.73L138.881 238.924L138.888 238.917ZM127.065 259.801C127.065 259.801 129.82 261.967 135.732 261.573C140.065 261.379 143.81 260.59 143.81 260.59V246.995C143.81 246.995 140.072 246.407 135.732 246.407C129.627 246.407 127.065 248.573 127.065 248.573C125.293 249.75 124.504 251.723 124.504 254.284C124.476 255.661 124.816 257.02 125.487 258.223C125.681 258.617 125.882 259.012 127.065 259.801V259.801ZM378.234 223.751C378.04 224.541 376.462 228.666 376.067 230.05C375.874 230.639 375.479 230.839 374.891 230.839C374.891 230.839 373.119 230.445 371.54 230.445C370.208 230.475 368.885 230.673 367.602 231.033C366.217 231.428 365.041 232.21 363.864 233.2C362.687 234.19 361.891 235.761 361.303 237.533C360.715 239.305 360.32 242.261 360.32 245.41V267.47C360.32 268.059 359.925 268.453 359.337 268.453H351.46C350.872 268.453 350.477 268.059 350.477 267.47V223.177C350.477 222.589 350.872 222.194 351.266 222.194H358.88C359.469 222.194 359.669 222.589 359.669 223.177V226.721C360.846 225.143 362.819 223.765 364.584 222.983C366.349 222.201 368.529 221.599 372.198 221.806C374.171 222 376.732 222.395 377.113 222.595C377.902 222.789 378.289 222.99 378.095 223.772L378.234 223.751ZM305.139 203.263C305.332 203.263 305.928 203.657 305.727 204.245L303.36 210.544C303.166 210.939 302.965 211.334 301.975 210.939C301.781 210.939 301.387 210.745 300.397 210.544C299.809 210.351 298.819 210.351 298.03 210.351C296.853 210.351 295.863 210.544 294.88 210.745C293.897 210.946 293.108 211.534 292.319 212.323C291.53 213.112 290.741 214.095 290.153 215.473C288.976 218.622 288.574 221.979 288.574 222.173H298.03C298.819 222.173 299.013 222.568 299.013 223.156L297.836 229.261C297.642 230.244 296.853 230.05 296.853 230.05H287.003L280.704 268.072C279.915 272.018 279.126 275.361 278.143 278.109C277.16 280.857 275.977 282.837 274.198 284.81C272.619 286.582 270.847 287.959 268.681 288.547C266.708 289.337 264.147 289.724 261.392 289.724C260.008 289.724 258.637 289.724 257.059 289.33C256.111 289.185 255.185 288.92 254.304 288.541C253.909 288.347 253.716 287.952 253.909 287.364L256.076 281.259C256.471 280.47 257.059 280.864 257.059 280.864L258.637 281.453C259.426 281.646 260.215 281.646 261.004 281.646C262.389 281.646 263.566 281.453 264.548 281.058C265.725 280.663 266.521 279.881 267.303 278.891C268.086 277.902 268.688 276.524 269.47 274.752C270.198 272.358 270.789 269.924 271.242 267.463L277.942 230.223H271.436C270.647 230.223 270.453 229.829 270.453 229.241L271.63 223.135C271.823 222.152 272.612 222.346 272.612 222.346H279.313L279.707 220.374C280.69 214.462 282.663 209.935 285.619 206.98C288.574 204.024 292.907 202.446 298.217 202.446C299.795 202.446 301.172 202.64 302.356 202.84C303.145 202.647 304.128 202.84 305.111 203.235L305.139 203.263ZM172.362 267.29C172.362 267.879 171.968 268.273 171.573 268.273H163.696C163.108 268.273 162.907 267.879 162.907 267.29V204.052C162.907 203.657 163.302 203.069 163.696 203.069H171.573C172.162 203.069 172.362 203.463 172.362 204.052V267.29Z" fill="white"/>
</svg>